<?xml version="1.0" encoding="UTF-8"?>
<svg id="Layer_2" data-name="Layer 2" xmlns="http://www.w3.org/2000/svg" viewBox="0 0 518.55 281.77">
  <g id="Layer_1-2" data-name="Layer 1">
    <g>
      <g>
        <g>
          <path d="M51.48,143.29c5.99,6.53-1.35,14.84-1.9,22.17-.18,2.36.15,4.72.6,7.01.69,3.55,3.12,7.18,1.77,10.85l-3.82-7.85c-15.81-16.24-45.24,1.28-48.13,20.72l1.9-.47c-.44,1.99-1.28,3.29-1.44,5.46-.35,4.77.77,10.71,4.54,3.6l1.86,1.88,2.64-3.06c1.54.6,2.53-.39,3.58-.52.73-.09,1.61.42,2.77.18,1.27-.27,1.86-1.65,2.99-1.83.46-.07,4.26.42,4.43.56.15.13,1.2,3.26.8,3.72l-11.6,10.59c-.24.41-.16,1.05,0,1.49.55,1.54,18.21,8.08,20.66,9.84.31,1.5-1.08,3.35-1.14,4.53-.07,1.35.85,3.63.91,5.25.21,6.23.53,14.94,0,21.01-.2,2.24-1.08,3.82-1.44,5.93,2.21-.41,9.14,4.53,8.57.97l3.99.43c2.1-.59-.82-3.47-1.45-3.7-1.47-.53-6.61.03-7.23-1.82-.39-7.62-.68-15.18-.58-22.82.04-2.99,1.46-6.26-.46-9.27l5.72,2.4c-1.37,2.51.72,3.43.98,5.44.22,1.67-.7,4.34-.46,5.19.32,1.12,2.26,1.23,1.87-.16l1.67,2.38c1.13.54,1.24-2.66,1.22-3.09-.05-1.45-1.43-8.9-2.03-9.93l-28.03-13.43,10.7-10.27c2.03-.6,3.48-.76,5.02-2.36-.07,1.55,1.66,2.32,1.9,3.58.86,4.52-.81,11.63,0,16.2.21,1.18.76,1.33,1.9,1.19.15-3.72-.19-7.5-.02-11.22.05-1.07.43-6.95.61-7.26.13-.23,3.03-3.97,3.23-4.15.89-.78,2.63-.88,3.75-1.49.97-.54,2.5-2.17,2.88-2.31.84-.32,3.21.69,4.44.58,4-.34,8.09-4.49,9.65-7.98,3.6-8.07.26-11.27-1.37-18.68-2.56-11.66,6.75-18.91,2.3-30.9-2.21-5.95-10.52-13.51-17.24-10.59-4.4,1.91-3.7,5.5-4.91,6.52-.43.36-1.61.48-2.36.98-4.97,3.33-6.76,8.16-4.94,13.94.62,1.96,3.75,6.75,4.81,3.09.89-3.06.13-4.7,3.2-7.29,3.47-2.93,4.02-1.1,7.1-1.44,1.56-.17,5.41-1.9,5.54-3.8ZM39.93,139.38c1.14-1.14-.04-5.89,5.15-6.53,7.85-.97,14.04,7.88,14.48,14.98.44,7.02-4.22,13.33-4.32,20.01-.07,4.68,3.07,10.04,3.39,14.76.55,8.12-3.65,15.17-12.41,14.55l.47-1.42c-2.52-.55-3.04,2.98-5.49,3.81-.49-2.62-5.8,2.1-5,3.81l-3.84-.23-2.16-3.02c-2.6.59-7.19.59-9.63-.4-.57-.23-.52-1.06-.89-1.12-1.86-.32-7.74,3.3-8.26,2.87.55-1.22,2.81-3.07,1.19-4.27-2.8,1.38-3.86,4.38-5.72,6.66l.71-5.72-1.44.22-3.79,6.45c-.62-4,1.29-7.75.54-11.58l5.17-4.87c-.06-2.06-2.58.83-3.33,0,7.59-11.08,22.02-20.82,35.85-15.84,5.22,1.88,8.57,6.91,9.43,12.26,8.19.04,2.12-10.04,1.55-14.66-1.18-9.54,8.1-19.29,1.7-27.44-3.32-4.23-2.37-.3-4.02,1.05-1.42,1.17-4.61,1.68-6.33.95l-.06-3.29h-1.42c-.28,2.95-.55,4.64-3.59,5.66-3.5-2.29,3.19-3.18,1.68-4.7-.94-.95-5.05,4.05-5.15.31-.06-2.2,4.99-2.74,5.53-3.28ZM25.26,202.4c.55.24,4.82-.65,4.28.71-.72,1.83-4.32,1.64-4.28-.71Z"/>
          <path d="M63.39,265.32c-1.24-.14-9.52-.46-9.52.71,2.44,1.61,5.95.08,8.75,1.16l.78-1.87Z"/>
          <path d="M14.3,259.6c-.16,1.04.41,1.15,1.22,1.4,1.12.34,4.46.37,5.84.4.63.01,1.2.16,1.52-.61.51-1.21.06-.96-.71-1.18-1-.29-7.57-.37-7.86,0Z"/>
          <path d="M54.02,258.72c-.96-.3-7.18-.56-6.83,1.11.21,1,5.45.9,6.43.72,1.38-.25,1.67-1.43.4-1.83Z"/>
          <path d="M29.07,267.7v-1.43c-3.02.31-5.64-.99-8.58,0-.28.31.43,1.43.71,1.43h7.86Z"/>
          <path d="M40.85,185.58c-.33.28-1.23.14-1.54.58-.37.55-.12,1.69-.68,2.67-.47.83-1.9,1.51-2.65,2.11-.32-.81,1.7-5.88-1.14-4.23-.36.21-3.37,6.15-5.06,6.61-1.64.68-.18-4.11.25-4.51-1.98-2.27-3.35,2.08-4.74,3.35-.94.86-2.28,1.12-3.13,2.12l1.19-6.19c-2.15-.5-1.78.67-2.83,1.68-1.02.98-2.87,3.14-4.09,3.55s-.42-.47-.36-.84c.07-.48,1.31-4.59-.1-3.92-1.16,1.33-3.09,5.96-1.19,6.93s4.7-2.77,5.23-2.17c-.03,5.37,4.83,1.53,6.92-.48l.45,1.93c2,2.16,5.41-2.22,6.22-2.28.53-.04,1.36,1.13,2.76.76,1.86-.5,6.77-6.94,7.26-8.98.5-2.12-.59-6.33-1.92-4.3-.31.47.98,4.07-.84,5.59Z"/>
          <path d="M10.96,190.48h-1.43s.48-2.38.48-2.38c-.45-.47-2.39,1.3-2.4,2.14-.01,1.74,3.36,2.65,3.35.24Z"/>
          <path d="M44.37,138.95c1.61,1.01,3.38-1.55,1.89-2.6-2.15-1.51-3.04,1.88-1.89,2.6Z"/>
          <path d="M30.65,177.75c-.39.34-1.09,1.44.08,1.28.57-.08,4.01-.74,3.58-1.65-.62-1.35-2.92-.27-3.67.37Z"/>
        </g>
        <g>
          <path d="M208.71,21.16c.4.03.88.06,1.42.08.54.02,1.08.03,1.62.03h26.67c.57,0,1.12,0,1.64-.03.52-.02,1-.04,1.44-.08v9.77h-1.47c-.51,0-.91-.21-1.21-.63-.3-.42-.52-.94-.66-1.57-.14-.62-.28-1.26-.43-1.9-.15-.64-.36-1.17-.63-1.59-.27-.42-.71-.63-1.32-.63h-21.4c-.61,0-1.05.21-1.32.63-.27.42-.48.95-.63,1.59-.15.64-.3,1.27-.43,1.9-.14.62-.35,1.15-.63,1.57-.29.42-.7.63-1.24.63h-1.42v-9.77ZM219.19,61.74v-1.52c0-.57.12-1,.35-1.29.24-.29.64-.56,1.21-.84.57-.24.94-.51,1.11-.81.17-.3.25-.74.25-1.32V22.93h5.92v33.04c0,.57.09,1.01.28,1.32.18.3.56.57,1.14.81.54.27.93.55,1.16.84.24.29.35.72.35,1.29v1.52h-11.79Z"/>
          <path d="M245.14,61.74v-1.52c0-.57.1-1,.3-1.29.2-.29.59-.56,1.16-.84.54-.24.92-.51,1.14-.81.22-.3.33-.74.33-1.32v-28.94c0-.57-.11-1.01-.33-1.32-.22-.3-.6-.57-1.14-.81-.57-.27-.96-.56-1.16-.86-.2-.3-.3-.72-.3-1.27v-1.52h11.79v1.52c0,.54-.12.96-.35,1.27-.24.3-.62.59-1.16.86-.57.24-.96.51-1.16.81-.2.3-.3.74-.3,1.32v11.33h17.56v-11.33c0-.57-.11-1.01-.33-1.32s-.6-.57-1.14-.81c-.57-.27-.97-.56-1.19-.86-.22-.3-.33-.72-.33-1.27v-1.52h11.69v1.52c0,.54-.1.96-.3,1.27-.2.3-.59.59-1.16.86-.54.24-.92.51-1.14.81-.22.3-.33.74-.33,1.32v28.94c0,.57.11,1.01.33,1.32.22.3.6.57,1.14.81.57.27.96.55,1.16.84.2.29.3.72.3,1.29v1.52h-11.69v-1.52c0-.57.11-1,.33-1.29.22-.29.62-.56,1.19-.84.54-.24.92-.51,1.14-.81.22-.3.33-.74.33-1.32v-14.12h-17.56v14.12c0,.57.1,1.01.3,1.32.2.3.59.57,1.16.81.54.27.93.55,1.16.84.24.29.35.72.35,1.29v1.52h-11.79Z"/>
          <path d="M315.07,61.74h-29.25v-1.52c0-.57.1-1,.3-1.29.2-.29.59-.56,1.16-.84.54-.24.92-.51,1.14-.81.22-.3.33-.74.33-1.32v-28.94c0-.57-.11-1.01-.33-1.32-.22-.3-.6-.57-1.14-.81-.57-.27-.96-.56-1.16-.86-.2-.3-.3-.72-.3-1.27v-1.52h24.64c.57,0,1.12,0,1.64-.03.52-.02.99-.04,1.39-.08v8.6h-1.42c-.54,0-.95-.18-1.24-.53s-.5-.78-.63-1.29c-.14-.51-.28-1.01-.43-1.52s-.37-.94-.66-1.29-.72-.53-1.29-.53h-13.21v13.97h8.3c.54,0,.94-.1,1.19-.3.25-.2.46-.46.61-.76.15-.3.29-.63.4-.99.12-.35.31-.64.58-.86.27-.22.67-.33,1.21-.33h1.32v9.92h-1.32c-.51,0-.9-.11-1.19-.33-.29-.22-.49-.5-.61-.83-.12-.34-.25-.67-.4-1.01-.15-.34-.35-.61-.61-.81-.25-.2-.65-.3-1.19-.3h-8.3v16.44h14.57c.61,0,1.05-.19,1.34-.58.29-.39.51-.87.66-1.44.15-.57.3-1.15.45-1.72.15-.57.36-1.05.63-1.42.27-.37.69-.56,1.26-.56h1.52v9.06Z"/>
        </g>
        <g>
          <g>
            <path d="M197.56,71.62c0,1.47.31,2.53.93,3.18.62.66,1.35,1.18,2.2,1.56.85.39,1.56.77,2.14,1.16.58.39.87,1.12.87,2.2,0,.31-.02.72-.06,1.22-.04.5-.17,1.06-.41,1.68l-17.82,58.56-16.93-58.56c-.16-.54-.27-1.06-.35-1.56-.08-.5-.12-.91-.12-1.22,0-1.16.31-1.93.93-2.32.62-.39,1.35-.75,2.2-1.1.85-.35,1.58-.87,2.2-1.56.62-.69.93-1.78.93-3.24v-3.94h-29.88v3.94c0,1.7.29,2.88.87,3.53.58.66,1.33,1.18,2.26,1.56.93.39,1.83.89,2.72,1.51.89.62,1.56,1.74,2.03,3.36l5.27,16.79-15.98,44.07-18.36-60.05c-.16-.46-.27-.93-.35-1.39-.08-.46-.12-.93-.12-1.39,0-1,.29-1.72.87-2.14.58-.42,1.27-.81,2.09-1.16.81-.35,1.52-.85,2.14-1.51.62-.66.93-1.72.93-3.18v-3.94h-30.46v3.94c0,1.7.31,2.88.93,3.53.62.66,1.37,1.16,2.26,1.51.89.35,1.8.85,2.72,1.51.93.66,1.62,1.76,2.09,3.3l26.4,79.1h11.23l17.68-49.2,15.44,49.2h11.12l25.48-79.1c.62-1.62,1.37-2.74,2.26-3.36.89-.62,1.77-1.1,2.66-1.45.89-.35,1.64-.85,2.26-1.51.62-.66.93-1.83.93-3.53v-3.94h-24.21v3.94Z"/>
            <path d="M229.99,71.62c0,1.31.23,2.32.69,3.01.46.7,1.43,1.39,2.9,2.08,1.16.54,1.97,1.18,2.43,1.91.46.73.69,1.76.69,3.07v64.62c0,1.31-.23,2.34-.69,3.07-.46.73-1.27,1.37-2.43,1.91-1.47.62-2.43,1.27-2.9,1.97s-.69,1.74-.69,3.13v3.94h28.61v-3.94c0-1.39-.27-2.43-.81-3.13-.54-.69-1.47-1.35-2.78-1.97-1.24-.54-2.12-1.18-2.66-1.91-.54-.73-.81-1.76-.81-3.07v-64.62c0-1.31.27-2.33.81-3.07.54-.73,1.43-1.37,2.66-1.91,1.31-.69,2.24-1.39,2.78-2.08.54-.69.81-1.7.81-3.01v-3.94h-28.61v3.94Z"/>
            <path d="M331.5,138.16c-.66,1.04-1.18,2.34-1.56,3.88-.39,1.55-.75,3.07-1.1,4.57-.35,1.51-.89,2.78-1.62,3.82-.73,1.04-1.84,1.56-3.3,1.56h-30.81v-70.3c0-1.31.27-2.33.81-3.07.54-.73,1.58-1.37,3.13-1.91,1.7-.69,2.86-1.39,3.47-2.08.62-.69.93-1.7.93-3.01v-3.94h-30.11v3.94c0,1.31.23,2.32.7,3.01.46.7,1.39,1.39,2.78,2.08,1.23.54,2.1,1.18,2.61,1.91.5.73.75,1.76.75,3.07v64.62c0,1.31-.25,2.34-.75,3.07-.5.73-1.37,1.37-2.61,1.91-1.39.62-2.32,1.27-2.78,1.97-.46.69-.7,1.74-.7,3.13v3.94h67.17v-23.74h-3.82c-1.47,0-2.53.52-3.18,1.56Z"/>
            <path d="M413.32,79.26c-3.94-3.86-8.67-6.76-14.19-8.69-5.52-1.93-11.68-2.9-18.47-2.9h-34.05v3.94c0,1.31.23,2.32.69,3.01.46.7,1.39,1.39,2.78,2.08,1.23.54,2.1,1.18,2.61,1.91.5.73.75,1.76.75,3.07v64.62c0,1.31-.25,2.34-.75,3.07-.5.73-1.37,1.37-2.61,1.91-1.39.62-2.32,1.27-2.78,1.97s-.69,1.74-.69,3.13v3.94h33.24c7.57,0,14.17-1.14,19.8-3.42,5.63-2.28,10.38-5.48,14.24-9.61,3.86-4.13,6.76-9.09,8.69-14.88,1.93-5.79,2.9-12.16,2.9-19.11,0-7.49-1.04-14.07-3.13-19.75-2.08-5.68-5.09-10.44-9.03-14.3ZM405.85,134.1c-2.28,5.68-5.67,10.04-10.19,13.09-4.52,3.05-10.06,4.57-16.62,4.57h-5.1c-1.85,0-3.71-.04-5.56-.12v-75.51c2.01,0,4-.02,5.96-.06,1.97-.04,3.76-.06,5.39-.06,5.02,0,9.38.93,13.09,2.78,3.71,1.85,6.76,4.46,9.15,7.82,2.39,3.36,4.21,7.35,5.44,11.99,1.23,4.63,1.85,9.73,1.85,15.29,0,7.8-1.14,14.53-3.42,20.21Z"/>
          </g>
          <g>
            <path d="M140.58,168.6h-61.96c-1.39,0-2.72-.04-4-.12-1.27-.08-2.45-.12-3.53-.12v23.28h3.82c1.39,0,2.39-.48,3.01-1.45.62-.96,1.1-2.18,1.45-3.65.35-1.47.69-2.93,1.04-4.4.35-1.47.85-2.7,1.51-3.71.66-1,1.68-1.51,3.07-1.51h17.02v70.3c0,1.31-.21,2.34-.64,3.07-.43.73-1.29,1.37-2.61,1.91-1.31.62-2.24,1.27-2.78,1.97-.54.69-.81,1.74-.81,3.13v3.94h28.72v-3.94c0-1.39-.27-2.43-.81-3.13-.54-.69-1.47-1.35-2.78-1.97-1.24-.54-2.09-1.18-2.55-1.91-.46-.73-.7-1.76-.7-3.07v-70.3h17.03c1.39,0,2.43.5,3.13,1.51.69,1,1.22,2.24,1.56,3.71.35,1.47.69,2.93,1.04,4.4.35,1.47.85,2.68,1.5,3.65.66.97,1.6,1.45,2.84,1.45h3.71v-23.28c-.93,0-2.03.04-3.3.12-1.27.08-2.61.12-4,.12Z"/>
            <path d="M156.56,172.53c0,1.31.23,2.32.7,3.01.46.7,1.43,1.39,2.9,2.08,1.16.54,1.97,1.18,2.43,1.91.46.73.69,1.76.69,3.07v64.62c0,1.31-.23,2.34-.69,3.07-.46.73-1.27,1.37-2.43,1.91-1.47.62-2.43,1.27-2.9,1.97s-.7,1.74-.7,3.13v3.94h28.61v-3.94c0-1.39-.27-2.43-.81-3.13-.54-.69-1.47-1.35-2.78-1.97-1.24-.54-2.12-1.18-2.66-1.91-.54-.73-.81-1.76-.81-3.07v-64.62c0-1.31.27-2.33.81-3.07.54-.73,1.43-1.37,2.66-1.91,1.31-.69,2.24-1.39,2.78-2.08.54-.69.81-1.7.81-3.01v-3.94h-28.61v3.94Z"/>
            <path d="M246.99,239.5l-23.49-70.9h-25.6v3.94c0,1.31.23,2.32.7,3.01.46.7,1.39,1.39,2.78,2.08,1.23.54,2.1,1.18,2.61,1.91.5.73.75,1.76.75,3.07v64.62c0,1.31-.25,2.34-.75,3.07-.5.73-1.37,1.37-2.61,1.91-1.39.62-2.32,1.27-2.78,1.97s-.7,1.74-.7,3.13v3.94h22.35v-3.94c0-1.39-.29-2.43-.87-3.13-.58-.69-1.49-1.35-2.72-1.97-1.24-.54-2.1-1.18-2.61-1.91-.5-.73-.75-1.76-.75-3.07v-62.23l23.16,68.83c.62,1.93,1.31,3.42,2.09,4.46.77,1.04,1.66,1.76,2.66,2.14,1,.39,2.28.58,3.82.58h3.24l25.83-75.74v61.96c0,1.31-.25,2.34-.75,3.07-.5.73-1.37,1.37-2.61,1.91-1.31.62-2.22,1.27-2.72,1.97-.5.69-.75,1.74-.75,3.13v3.94h28.26v-3.94c0-1.39-.25-2.43-.75-3.13-.5-.69-1.45-1.35-2.84-1.97-1.24-.54-2.1-1.18-2.61-1.91-.5-.73-.75-1.76-.75-3.07v-64.62c0-1.31.25-2.33.75-3.07.5-.73,1.37-1.37,2.61-1.91,1.39-.69,2.33-1.39,2.84-2.08.5-.69.75-1.7.75-3.01v-3.94h-24.09l-24.46,70.9Z"/>
            <path d="M369.08,240.75c-.62.93-1.12,2.05-1.51,3.36-.39,1.31-.75,2.65-1.1,4-.35,1.35-.85,2.49-1.51,3.42-.66.93-1.72,1.39-3.18,1.39h-32.31v-36.25h17.84c1.31,0,2.28.25,2.9.75.62.5,1.1,1.14,1.45,1.91.35.77.66,1.53.93,2.26.27.73.73,1.39,1.39,1.97.66.58,1.6.87,2.84.87h3.59v-23.74h-3.59c-1.24,0-2.18.25-2.84.75-.66.5-1.12,1.16-1.39,1.97-.27.81-.58,1.56-.93,2.26s-.83,1.31-1.45,1.85c-.62.54-1.58.81-2.9.81h-17.84v-31.39h29.07c1.31,0,2.33.43,3.07,1.27.73.85,1.27,1.85,1.62,3.01.35,1.16.66,2.36.93,3.59.27,1.24.75,2.26,1.45,3.07.7.81,1.66,1.22,2.9,1.22h3.82v-20.73c-1,0-2.16.04-3.47.12-1.31.08-2.66.12-4.05.12h-57.1v3.94c0,1.31.23,2.32.7,3.01.46.7,1.39,1.39,2.78,2.08,1.23.54,2.1,1.16,2.61,1.85.5.69.75,1.74.75,3.13v64.62c0,1.31-.25,2.34-.75,3.07-.5.73-1.37,1.37-2.61,1.91-1.39.62-2.32,1.27-2.78,1.97-.46.69-.7,1.74-.7,3.13v3.94h68.33v-21.89h-3.94c-1.39,0-2.39.46-3.01,1.39Z"/>
            <path d="M449.8,226.21c-1.93-3.51-5.04-6.85-9.32-10.02-4.29-3.17-10.02-6.25-17.2-9.27-5.33-2.39-9.57-4.63-12.74-6.72-3.17-2.08-5.43-4.17-6.77-6.25-1.35-2.08-2.03-4.36-2.03-6.83,0-3.78,1.41-6.7,4.23-8.74,2.82-2.04,6.89-3.07,12.22-3.07,2.62,0,5.23.39,7.82,1.16,2.59.77,4.94,2.07,7.06,3.88,2.12,1.81,3.88,4.23,5.27,7.24.7,1.55,1.41,2.61,2.14,3.18.73.58,1.6.87,2.61.87h3.82v-20.5h-12.81c-1.62-.87-3.35-1.6-5.2-2.2-3.82-1.23-7.97-1.85-12.45-1.85-6.1,0-11.37.95-15.81,2.84-4.44,1.89-7.86,4.57-10.25,8.05-2.39,3.47-3.59,7.57-3.59,12.28,0,3.94.91,7.55,2.72,10.83,1.81,3.28,4.73,6.37,8.74,9.27,4.01,2.9,9.27,5.77,15.75,8.63,5.79,2.55,10.33,4.94,13.61,7.18,3.28,2.24,5.62,4.52,7.01,6.83,1.39,2.32,2.08,4.86,2.08,7.64,0,4.32-1.55,7.61-4.63,9.84-3.09,2.24-7.45,3.36-13.09,3.36s-10.65-1.16-14.82-3.47c-4.17-2.32-7.22-5.79-9.15-10.42-.69-1.62-1.43-2.72-2.2-3.3-.77-.58-1.66-.87-2.66-.87h-3.82v25.48h3.82c1.39,0,2.43-.31,3.13-.93.69-.62,1.39-1.23,2.08-1.85.7-.62,1.7-.93,3.01-.93,1.7,0,3.57.45,5.62,1.33,2.04.89,4.57,1.76,7.59,2.61s6.72,1.27,11.12,1.27c6.1,0,11.39-1.02,15.87-3.07,4.48-2.04,7.95-4.94,10.42-8.69,2.47-3.74,3.71-8.16,3.71-13.26,0-4.17-.97-8.01-2.9-11.52Z"/>
          </g>
        </g>
        <g>
          <path d="M58.55,40.89c-1.69-.28-2.02-2.48-3.35-3.59-1.27-1.06-8-3.49-9.52-3.48-2.49.02-.84,3.6-.34,4.82,1.59,3.9,4.61,7.5,9.18,7.19-1.65,2.69-.76,6-1.77,8.76-.87,2.38-3.31,3.52-4.31,5.55-2.62,5.35.12,10.26,6.08,10.56-3.13,4.18-8.52-.61-11.65,4.48,1.37,1.7,3.36,2.01,5.37,2.24l-3.57,3.18c-2.96-1.01-7.38-1.03-9.46,1.73-2.29,3.04,5.58,2.63,7.2,1.6-.45,2.63-3.25,3.8-3.84,6.24-.4,1.63-.5,3.85.98,4.94,1.71.5,3.75-4.12,3.78-5.59.02-1.05-.57-1.95-.4-3.01.36-2.25,3.11-5.43,5.08-6.61.49,1.26-.62,2.48-.7,3.82-.13,2.22,1.31,4.59,2.93,6.03.78,0,2.01-4.27,2.02-5.14.02-1.98-1.59-4.13-1.7-5.96-.1-1.57,2.18-4.08,3.49-5.03-.79,2.5-.82,6.41,1.55,8.09,1.94,1.37,2.63-3.32,2.51-4.73-.15-1.69-2.19-4.43-2.05-5.18.44-2.51,3.79-2.73,5.61-4,.09,2-.12,4.04,0,6.05.21,3.33,1.4,8.18,1.38,11.22-.02,2.78-1.98,6.82-1.8,10.68.3,6.33,3.21,9.81,4.33,14.98,1.44,6.65,1.41,17.58,1.48,24.52.07,7.29.48,14.73-1.87,21.7l-2.82.47-.26,1.38c.96.18,2.02-.24,2.91-.19,4.78.24,13.04,1.09,17.52.67,1.49-.14,2.17-.95,3.54-.98,3.41-.06,6.94.55,10.79.48,1.49-.03,4.07,1.55,4.24-.87l-3.59-.45c-.03-.79.11-1.63-.04-2.42-.93-4.89-1.79-13.08-1.7-18.02.03-1.69.89-3.68.88-5.33-.02-4.28-1-7.41-.42-12.5.17-1.51,1.23-8.52,1.71-9.4.27-.51,1.53-.32,2.16-.62,2.21-1.06,2.26-5.26,1.45-7.29l-3.57.88c-.43-5.72-3.16-10.2-7.43-13.87-4.01-3.45-6.28-3.63-8.97-8.96-4.13-8.2-5.63-19.62-6.03-28.71,6.66,2.83,13.05-1.56,15.2-7.77-.16-.54-.82-.8-1.31-.97-.92-.32-6.82-1.15-7.82-1.13-3.01.05-5.64,1.75-7.86,3.6l-1.2-2.01c2.04-7.2,3.81-14.49,6-21.64.68-2.2,6.16-16.92,5.5-17.59-.83-.07-1.32-.11-2.01.45-.88.72-4.5,8.38-5.24,10-3.75,8.31-6.47,17.16-9.12,25.86l-4.29-1.17c.63-11.91,1.79-23.86,4.99-35.39-1.15-4.54-3.92,3.31-4.52,4.94-3.71,10.01-5.35,21.87-5.37,32.51ZM46,35.97c4.29.72,8.61,1.89,10.7,6.13l-1.37,2.3c-4.8.06-8.18-4.14-9.33-8.43ZM55.51,48.88c-.91-1.53,2.79-6.25,4.15-7.09,1.99-1.24,2.58-.12,3.14-.18.41-.04.82-.66,1.37-.7.36-.03,2.68.42,2.81.54.23.22.06,1.1.53,1.47,1.33,1.07,5.57-.08,4.95,4.26,2.76-.05,4.29-3.07,6.97-3.57,1.17-.02.97.02.11.56-.42.26-3.86,2.24-3.05,3.01,4.08-1.6,7.45-3.83,12.1-2.68-1.46,2.94-5.38,5.88-8.72,5.84-1.13-.02-4.52-1.21-5.2-.72-1.69,6.59-.1,14.01,1.5,20.53.93,3.79,4.39,13.89,7.17,16.37.72.64,3.69,1.94,4.95,2.89,14.26,10.8,4.79,24.51,5.73,38.65.28,4.21.46,7.77-.07,12.17l1.36,15.45-1.12-.89-.88.9-2.02-.91c.66-3.46.59-7.43.47-10.99-.16-4.67-.46-10.67-.88-15.23-.25-2.69-2.69-14.07-2.05-15.45.26-.55,3.11-2.96,2.02-4.04s-1.7,1.4-2.03,1.77c-1.3,1.47-2.51,2.79-4.69,2.71l.44-5.38h-1.34c-1.52,6.68-1.66,13.55-1.8,20.39-.16,7.81-.28,16.3.45,24.2.15,1.59.81,3.11.89,4.71l-1.63-2.19c-1.44.28-2.61-.23-3.74.85,1.34-6.2,1.03-13.12.91-19.52-.02-1.06-.45-2.04-.49-3.1-.25-8.02.28-16.14-1.81-23.97l-1.31-.03.44,4.49c-1.12-.63-1.66-.34-2.04.87-.68,2.2-.56,7.17-.65,9.65-.14,3.65-.39,7.48-.46,11.19-.13,6.35.13,12.72.01,19.07-1.74-1-2.47,1.23-4.06-.76,1.13-6.03,1-12.18.95-18.31-.07-8.16-.31-16.63-1.68-24.77-.57-3.37-1.22-3.69-2.25-6.72-1.29-3.81-2.5-12.24-.93-15.93.35-.83,1.67-.72,1.69-2.36.01-1.02-1.04-2.23-1.3-3.59-.93-4.77-.53-10.35-1.31-15.16.19-.8,5.46-2.54,3.96-4.3-.39-.45-6.16,4.15-6.72,3.58l1.21-2.92-.99-1.11c-1.34,3.29-4.91,8.4-8.74,5.59l.89-.89c-1.41-2.14-2.35.91-2.68.66-.86-1.95-1.1-3.67-.9-5.83l1.63,1.31,1.46-1.17c.42-1.58-1.85-1.9-1.74-2.15,1.47-1.54,6.27-6.85,6.64-8.63s-1.38-2.03-1.62-2.45ZM84.21,115.41c.16-.15,2.1-.71,2.59-.77-.41,3.74-1.39,8.4-1.38,12.1,0,1.58.92,3.04.93,4.48s-.83,3.27-.91,4.92c-.28,6.03.24,12.14.01,18.17l-1.8-.77c.22-6.26-.79-12.45-.44-18.74.17-3.12.28-3.02.05-6.32-.11-1.61.19-12.33.95-13.07ZM73.8,157c.27-7.21-.36-14.56-.02-21.76.14-3.01,1.46-5.09,0-8.48l1.13-11.45c.74.51.65,1.22.7,1.99.43,6.17.77,12.72.89,18.83.05,2.71.2,19.86-.97,20.81l-1.74.06ZM87.24,157l.67-36.32c.2,2.6.97,5.26,1.16,7.85.56,7.67,1.36,16.87.88,24.67-.08,1.28-.58,2.49-.47,3.79h-2.24Z"/>
          <path d="M106.3,156.55c-.35.1-.91,1.01-.67,1.34,2.07-.13,7.62,1.75,7.17-1.34h-6.5Z"/>
          <path d="M72.01,108.13l.89-.22c.13-1.11-1.45-4.74-1.95-6.13-.16-.46-.15-1.64-.96-1.26-2.02.94,1.6,6.35,2.02,7.61Z"/>
          <path d="M67.97,82.14c-.09,1.39.25,2.72.68,4.02.17.53,1.07,2.95,1.78,2.7,1.45-.51-1.38-5.22-1.11-6.42l-1.35-.3Z"/>
          <path d="M67.21,50.36c-2.26-.56-2.63,3.55-.36,3.55,1.81,0,2.18-3.1.36-3.55Z"/>
          <path d="M55.59,60.66c-1.58-.48-4.01,1.89-1.96,2.91,1.05.52,4.06-1.97,1.96-2.91Z"/>
        </g>
        <g>
          <path d="M475.56,162.17l-1.32-8.79,2.29-1.61c.85.25,1.84,7.64,1.66,8.75-.26,1.6-1.1,1.83-2.63,1.65Z"/>
          <path d="M486.62,162.81c-.43-.55,2.55-8.64,4.87-7.8,2.38.62-1.94,7.12-2.9,8.15l-1.97-.35Z"/>
          <path d="M460.93,158.27c1.34-.36,1.51.42,2.17,1.07,1.44,1.4,5.34,5.56,2.37,6.72-.39,0-4.84-5.11-5.21-5.84-.45-.89-.08-1.75.67-1.95Z"/>
          <path d="M479.29,180.48c4.84-.87,6.74,5.39,1.64,6.3-4.84.87-6.74-5.39-1.64-6.3Z"/>
          <path d="M491.73,255.92c2.24,1.39,1.17,8.38-2.51,8.35-.58-2.13,1.52-4.13,1.67-5.81.04-.5-2.51-4.62.84-2.54Z"/>
          <path d="M486.56,210.99c.36.24,2.66,7.27,2.01,8.4-1.37,1.65-3.67-6.86-3.83-7.55-.32-1.36,1.35-1.17,1.83-.85Z"/>
          <g>
            <path d="M452.52,281.5c14.56-.35,33.35-1.06,45.42-2.48-2.01-.87-7.66-.95-7.99-1.18-.19-.13-1.85-4.04-1.88-4.27-.24-1.67,3.38-4.97.83-6.69l-3.04,4.43-3.79-.55c3.51-5.4,6.55-12.58,3.58-18.86-1.18-2.51-2.61-3.69-5.53-3.24-.18,1.7,1.62,1.83,2.51,3.02,3.07,4.11.66,14.37-2.8,17.83-1.71,1.72-7.33,1.15-6.86,3.53.33,1.67,5.09-.41,6.79-.33,3.45.15,7.74,1.78,7.5,5.87l-1.62-2.61-1.64.39v3.52c-1.5-.91-.38-2.81-2.91-3.26-2.23-.4.3,2.6-.33,3.26-1.63-.09-2.44-1.23-4.23-1.34-2.63-.17-6.76,2.01-8.99-.54-2.1-2.39,1.43-4.2,1.97-5.69.17-.46.42-5.87.2-6.08h-1.95c.45,8.3-8.25,12.93-15.24,15.28Z"/>
            <path d="M497.67,276.63l.59,2.35c.9-.11,1.76-.22,2.58-.34-.95-1.04-1.21-2.55-3.16-2.02Z"/>
            <path d="M451.48,281.52c-.18-3.38,2.17-2.86,4.13-4.35,4.14-3.13,7.09-6.59,8.89-11.6l1.94,1.29c.38-.49-.34-5.35-.01-6.7.2-.81,2.21-.72,1.97-2.08l-1.95-.33v-3.9s2.59.65,2.59.65l-.09-2.54-1.9-.41,1.02-4.2.32,1.95c1.43.38,2.86-1.78,1.49-2.6-2.83-1.7-3.31-.69-2.14-5.2l.65,1.95c4.91-1.47-.62-2.64-.71-2.99l.06-7.43c2.81,2.34,6.08,4.19,6.34,8.29.15,2.25-1.72,5.25,1.61,6.84,4.07,1.94,7.34-3.33,7.65-7,.67-8.01-5.38-10.51-6.38-15.76-.46-2.4,1.96-7.85.19-8.61-1.19-.51-1.52,2.57-1.78,3.41-.45,1.46-1.33,3.89-1.14,5.32.23,1.75,5.13,7.66,6.16,10.79,1.47,4.5,1.22,6.62-2.9,9.09.65-1.58-1.2-2.04-1.28-2.41-.54-2.37.24-4.24-1.42-6.92-.92-1.48-2.86-2.24-3.02-2.53-.37-.67.11-1.89-.24-2.33-.27-.33-2.77-.35-3.04-1.73l1.19-2.93c-.67-.67-2.76,2.44-3.25.31-.71-3.11,2.16-3.08,2.52-3.68.33-.54-.37-1.66-.22-2.55.11-.66.88-1.38.98-2.27.13-1.11-1.02-.76-1.3-1.42-2.12-5.05,1.28-8.25,1.81-11.66.23-1.48-1.45-3.05.41-3.98.56-.1,2.62,1.59,2.29-.43l-3.25-1.64.66-1.94h-1.96s.68-1.58.68-1.58l-1.28-.65.6-2.32c-8.62,1.93-11.4-9.83-1.95-9.1-.29,1.17-2.23.58-3.51,1.36-3.82,2.31,1.02,9.38,5.68,6.49l.78-1.28-1.66-5.27h1.96c-1.58-4.16,4.36-6.79,7.79-7.48,3.52-.7,9.9.02,12.36,2.91l-1.95,1.95h3.25c-.27,1.63-1.04,2.99-.53,4.74.53,1.8,2.59,1.72,3.13,3.06l-9.75,2.29c-.32,1.53,1.31.98,2.29.99,2.43.02,4.44-.71,6.81-.67,2.09,1.82-9.72,5.17-9.75,6.83-.85,2.05,3.01.06,3.24.31l1.29,4.24-1.63.96c-.29,2.04,1.73.69,2.49.87,2.66.64,7.06,1.63,9.9,1.75,2.63.12,4.79-.97,7.45-.02-1.19-3.86,2.63-8.29,2.53-12.05-.05-1.79-2.24-3.44-1.86-5.5,1.96,1.88,4.72.94,7.14.65.14,4.76-.19,16.38-3.44,19.96-1.06,1.17-9.48,3.96-11.51,4.09l1.29-.65c0-2.59-1.99-1.92-3.9-1.29l.66,1.94c-1.1,1.11-2.36-3.43-3.9-1.94-.26.25,2.05,5.09,1.94,6.89-.08,1.39-1.53.59-1.33,1.86.25,1.6,3.08,6.31,3.65,8.77,1.49,6.43.71,15.36-2.14,21.34-.89,1.87-3,1.9-1.48,6.02,2.32.3,1.55-2.13,2.14-3.07.25-.4,1.27-.54,1.68-1.21.69-1.11.56-2.64,1.71-3.52,2.95,5.52,1.28,14.84-2.62,19.49-1.26,1.51-6.97,1.65-5.51,3.26.77.85,11.96-1.16,12.35,3.91l-2.59-.65.51,2.58c2.03-.3,3.77-.63,5.14-.99.2-2.69-2.73-5.95-8.26-6.8,4.48-5.03,7.09-13.79,4.24-20.16-.62-1.38-2.09-2.32-2.3-3.6-.45-2.75,1.3-9.8.96-13.39-.21-2.17-1.81-8.39-2.39-11.08-.13-.62-2.11-4.87-1.8-5.08,3.7.29,13.8-2.59,15.77-5.38,1.64-2.32,3.71-10.89,3.79-13.81.07-2.61-1.17-5.88-.45-8.34,1.02-3.5,4.28-5.84.98-10.45-2.52-3.51-6.08-1.66-8.72-2-.98-.13-1.83-1.69-3.88-1.69-3.98-.01-8.66,6.34-12.03,4.26-.63-.39-.87-1.73-1.61-2.29-5.6-4.2-16.32-3.9-21.78.36-.96.75-1.39,2.24-1.97,2.58-1.03.61-3.08.22-4.58.62-7.87,2.12-4.84,14.43,2.61,13.35-.81,2.51,2.45,5.16,2.54,6.8.19,3.3-2.8,8.12-3.57,11.42-.46,1.97-.97,9.79-.79,11.85.19,2.12,2.17,4.87,2.21,6.03.05,1.27-1.46,4.1-1.63,5.92-.9,9.88,1.54,22.84-3.43,31.69-5.07,9.04-13.64,9.59-22.59,12.85-.03.18-.04.36-.06.53,3.53-.04,8.27-.12,13.64-.24ZM504.15,181.99c.29-.93-.39-1.17,1.32-.97.72,2.19,1.17,4.51-.31,6.5-1.6-1.49-1.6-3.63-1-5.53ZM494.41,195.65c1.32-1.38,2.32-3.64,2.62-5.53,2.17.83,4.53,1.81,6.86.84l.6.44c2.64,1.92.55,11.95-1.07,12.92-.21.12-4.28.68-4.81.68-.99-.01-1.72-.87-2.53-.92-2.45-.17-5.31,1.74-6.56-2.22-1.46-4.63,2.4-3.6,4.9-6.22Z"/>
          </g>
        </g>
      </g>
      <g>
        <path d="M359.52,24.87c.72,2.54-.12,4.69,0,7.25h5.54c0-2.05-.26-4.14,0-6.19.1-.76-.18-.7.85-.64l.78,7.39c-1.76,1.88-4.95,3.11-3.12,6.27.29.5,5.71,2.12,2.93,2.95-1.5.45-3.33-1.59-4.21-1.53-.29.02-4.08,2.8-4.48.91-.29-1.36,3.48-1.12,3.84-2.98.71-3.63-3.03-3.6-3.41-5.55-.33-1.68,0-5.51.43-7.25.16-.65-.3-.75.84-.64Z"/>
        <path d="M357.82,52.6c1.07-.36.45-2.77,2.13-2.56.09,1.18-.65,6.8-2.58,5.35-.51-.38-.41-1.67-.7-2.28s-1.02-.34-1.01-1.13c0-.67.98-4.5,1.52-4.5,1.27,1.28.4,3.5.64,5.11Z"/>
        <path d="M368.43,47.11l.88,1.89,1.3-.23c.52,8.32-3.78,2.7-3.41-1.71l1.23.05Z"/>
        <path d="M363.35,55.16l-1.3-.19c-.99-.73.06-5.79.66-5.77,1.49.5,1.12,5.65.63,5.96Z"/>
        <path d="M348.3,12.12c1.39-.36,3.51,2.76,2.28,3.6-1.31.89-3.68-1.33-3.39-2.49.21-.43.65-.99,1.11-1.11Z"/>
        <path d="M377.01,12.08c.26.77-.7,1.04-.7,1.49,0,.31.71.61.52,1.07-.13.31-1.68,1.76-2.11,1.69-2.82-1.78-.34-4.51,2.3-4.24Z"/>
        <path d="M365.48,49.62l.65,1.28,1.06-.85-.43,4.26c-2.04,1.32-3.4-6.13-1.28-4.69Z"/>
        <path d="M367.47,23.22c3.11-.97,2.46,3.11,1.18,3.34-1.01.18-2.64-2.88-1.18-3.34Z"/>
        <path d="M357.39,23.6c-.32,5.04-3.64,2.23-2.17.25l2.17-.25Z"/>
        <path d="M386.61,55.18c.56.02.62,1.59.53,2.01-.55,2.45-3.78-.94-.53-2.01Z"/>
        <g>
          <path d="M350.1,8.62l.04-1.24c5.73,2.94.07-3.23-2.29-2.52-1.91.58.74,3.08,1.43,3.8.25-.01.7.11.82-.04Z"/>
          <path d="M428.88,99.07c-.49-1.97-3.02-4.23-3.22-5.31-.62-3.23-.19-8.48-.44-11.93-.4-5.43-.75-17.08-2.65-21.67-.82-1.99-1.55-3.78-2.34-5.76-3-7.56-6.55-13.98-14.41-17.16-4.5-1.82-6.6-1.56-11.05-2.17-1.88-.26-3.67-1.6-5.38-.81.56-3.08-2.65-5.94-4.27-8.32l2.29.19c1.79-.53-.41-2.91-1-3.61-.98-1.16-2.22-2.08-3.42-2.98-.2-1.11,1.07-.47,1.83-.72,1.94-.65.75-2.55-.97-2.48-.19-1.3,2.43-1.95,1.52-3.42-.74-1.01-2.59-.57-3.24-1.05-.48-.35-.18-1.73-1.26-1.51.73-1.27,2.62-2.07,1.65-3.79-2.55-.22-4.49-.19-6.75,1.05-1.04.57-3.26,3.21-4.29,1.89-.52-.67,4.3-4.79,2.97-6.38-2.2-.22-3.8,1.53-5.53,2.55l.85-4.26c-2.34-.52-2.66,2.03-4.26,2.98-.12-.87.7-3.77-.01-4.26-1.7-1.17-4.17,5.62-4.27,6.82l-2.2-4.41-1.86-1.99c-2.18.53-.29,3.17-.64,4.69-1.58-.85-2.79-3.92-4.68-1.92l2.34,4.05.22-1.7c2.89,1.2,2.27,4.22,3.81,6.63l1.09.21.42-.86,2.19,2.1c.91.16,1.85-1.76,1.87-2.53,1.49-.34.53,2.62,2.57,1.51.23-.12,3.39-3.6,3.39-3.86l-1.69-.42c1.08-.91,2.39-3.07,3.83-2.56-.53,1.65-3.14,4.72-3.34,6.07-.11.74-.02.95.58,1.39l1.91-.86v1.28c1.7.39,1.23-.85,2.13-1.93,3.43-4.08,7.14-1.03,5.2,3.5-1.31,3.06-1.64,1.6-3.7,1.84-1,1.74,1.61,1.58,2.34,2.78l-1.7.21c-.87.78,3.94,2.72,4.26,3.63l-2.73-.62-.7,1.05c0,1.19,3.78,3.58,4.28,4.7.08.19.11.7-.21.63l-2.52-1.26-.69,1.04,2.14,3-1.28.21,2.56,5.12c-1.53-.26-2.86-4.51-4.04-4.26-1.97.41,1.81,5.79,1.91,6.82-1.25-.58-1.76-2.41-3.41-2.13-.16,2.2,1.84,3.62,1.27,5.97-1.25-.58-1.76-2.41-3.41-2.13l.42,4.69-2.13-.64c2.27,6.29,4.43,5.98,3.84-1.06,1.13.58,2.11,2.82,3.36,1.03l-.8-4.02,1.69,1.93c2.53.71.63-4.27.86-4.49l2.11-.67-1.25-3.16,1.28-.67-1.92-4.03,2.55,1.71.87-1.28c.63.28,3.61,5.42,2.99,6.4l-2.13-1.72-1.07.67c-.26,1.01,2.86,4.29,1.92,5.74l-1.91-1.52-.86.48,1.69,5.73c-1.34-1.01-1.68-3.03-3.83-2.56l1.27,6.4c-2.53-3.29-5.23-4.96-3.41.85-.9-.13-.66-2.36-1.5-2.56-1.72-.41-.87,4.87-1.06,5.97l-2.97-2.79c-2.48,1.11-1.62,3.07-1.71,5.35l-1.44-.04-.28,1.31-1.3-3.82h-1.23s-1.1,3.39-1.1,3.39c-1.1.2-.49-.81-.64-1.48-.54-2.42-2.42-.15-1.9,1.5-3.16,1.45-1.85-.33-2.79-1.51-.3-.38-2.14-1.38-2.55-1.07l-2.13,4.26c-.25-.96-.68-5.35-1.5-5.54-1.28-.3-1.27,3.14-2.34,3.41-.15-.88.27-5.77-.65-5.97l-3.19,3.83c-1.03-2.5.8-5.42-1.07-7.24l-2.77,3.83c0-1.47.9-4.06.81-5.35-.06-.9-1.32-1.9-.39-3.6-2.49-.89-2.09,5.13-2.77,5.12-.57-2.75,1.77-5.43.63-8.11l-2.98,2.98c-.27-1.91,2.86-8.87,2.52-9.96-.59-1.88-3.43.55-4.02,1.43-.32.07-.27-.41-.2-.63.34-1.09,3.87-6.96,4.67-7.7.64-.59,1.69-1.04,2.57-1.05.26.21-2.45,4.04-2.5,4.55-.08.83,1.24,1.16,1.23,2.05,0,.8-1.84,2.69-1.28,4.06l2.55-.42c.33.43-2.82,5.25-.22,5.54l1.92-1.7-.88,4.89,1.31.23c-.55,1-.21,1.84.63,2.55l1.49-1.7c.43,1.15-1.03,3.78,0,4.49,1.63,1.14,2.13-1.85,2.99-2.36.32.82.24,5.53,1.71,4.92,1.11-.89,1.73-2.19,1.7-3.64l-1.7,1.28c-.16-2,.62-4.43-1.07-5.96l-2.34,3.4.83-5.72-.67-.62-1.02.36.82-2.29c-.36-1.29-1.62-.6-1.67-.69-.31-.51,1.33-3.01-.64-3.83l-1.49,1.27,2.13-6.18-2.13.2c-.45-.63,3.83-4.64,1.17-4.6-.25,0-1.65.83-1.17-.29.42-.98,2.42-2.44,2.13-3.84-.31-1.45-1.98.77-2.56,0,.4-.91,4.33-3.09,3.41-4.05-4.02,2.29-6.42-6.54-2.76-7.25,3.33-.65,3.56,2.61,5.53,2.99,1.42.27-.2-1.34.44-1.29.98.03,1.33,1.61,2.5,1.26,2.13-.64-.4-7.44-2.29-4.87l.85,2.34c-.79-.82-2.22.02-2.5-.08-.15-.05-1.86-1.7-2.19-2.06-1.69.09-3.06-.38-4.5.85-.37.31-.52,1.09-.7,1.2-.78.45-3.56-.4-4.42,1.37-.83,1.71,2.48,4.04,2.35,4.85-.57,1.1-1.97,1.24-2.76,1.96-.9.82-4.51,4.99-3.18,5.98l2.98-.84c.28.23-5.42,6.55-1.58,5.46.22-.06,2.01-1.65,1.57-.14-.64,2.19-4.61,6.25-3.78,8.9l1,.7,3.21-2.55c.31,2.12-2.86,8.49-2.49,9.94.11.45.91,1.28,1.42,1.15l1.93-2.13c0,3-1.93,10.67,2.56,5.12l-.18,5.57c-4.13,1.07-6.71,4.89-6.18,9.11.15,1.2.88,2.36,1.14,3.55.42,1.91-.1,5.14,2.34,6.19,2.58,1.11,8.41,1.12,9.32-2.22,2.07.48,3.16,2.01,3.94,3.89,0,.03,0,.06,0,.09l43.62-3.01c-2.1-1.17-4.32-2.14-6.67-2.9l-5.53-1.5c1.23-.19,2.35-.51,3.63-.46,1.82.07,4.83,1.04,6.73.8,1.44-.18,3.26-2.21,4.81-2.46,3.18-.51,7.22.43,10.22.32,1.88-.07,4.62-.96,6.61-1.2,1.42,6.35,1.69,12.93,2.61,19.37.31,2.15,1.78,6.72,1.65,8.56-.06.87-1.93,3.66-2.34,5.34-.43,1.73-.65,3.77-.63,5.56l-.39-1.17.44,1.98c-.02-.12-.03-.25-.04-.37l.49.74c1.82.8.91-1.12,2.06-1.59l.2,3.85c1.76,1.39,1.05-1.3,1.93-1.72l1.5,3.83c1.19-.91,1.5-2.41,1.5-3.83.82-.04.26,1.96,1.48,1.7.85-.18.67-2.27.65-2.98l1.7.42c.23-.25-.4-6.05-.61-6.86ZM357.82,3.97l1.94,2.96.19,2.15c-1.48-1.23-2.33-3.18-2.12-5.12ZM362.93,10.37l-.75-1.8,1.6-4.16c.14,2.17.08,3.99-.85,5.97ZM339.04,21.89c1.24-2.03,3.43-3.05,5.41-4.21l2.27,1.23c-1.49.61-3.99,6.13-4.3,6.36-.11.08-1.78-.58-2.52.46l2.99-4.05c.29-1.71-3.29.21-3.85.2ZM377.88,18.69c.99-.63,1.86-3.43,3.3-2.65.08.04.06.48.24.58.51.28,1.26-.15,1.14.57l-2.47.51-.31,1.21,5.34,4.68-3.44-.23-3.8-4.68ZM384.09,29.97l-.3.82-.81.05c-.25-2.02-1.87-3.19-2.99-4.69l1.87.41,1.11-1.26,3.84,5.97-2.73-1.3ZM349.68,67.35l-1.89-4.92c-2.16,0,.57,6.73.61,7.93.03,1.16-.64,3.21-2.1,3.15.4-4.25-2.26-3.77-1.71.21-2.27,1.55-1.44-3.85-2.77-3.19l-.86,2.98c-2.04-1.3-1.14-3.23-1.52-4.88-.64-2.73-2.64-4.93.45-7.28l-.85-1.27c1.7-2.47,4.35-1.87,6.82-2.78.17-1.1-.93-1.3-1.71-1.28l1.71-3.4c.7-.11.4.57.42,1.06.19,3.86.53,10.56,3.42,2.78l1.69,5.34c1.53.95,1.75-2.89,2.57-3.21.09,1.81.51,4.2,2.53,4.75l-1.26,4.63-5.56-.61ZM423.93,96.97c-.63.58-1.45-1.14-1.49-1.48-.86-7.49-1.64-15.43-2.82-23-.21-1.33-1.26-8.15-2.32-8.36l-2.32.85c1.25-2.59-.18-4.9-2.13-6.61-1.17-1.02-2-2-2.98-.42,1.84,1.56,4.41,3.06,3.75,5.89-.74,2.4-6.67,1.1-8.69,1.13-1.2.02-3.95.26-5.07.47-2.19.42-4.21,3.48-6.19,1.43l1.25-3.17c-3.01-.32-2.29,1.66-2.75,3.39-.75,2.84-2.77-2-.44-3.4-.82-2.43-2.94,1.72-2.78,2.99-1.47-.46-.53-2.55.07-3.56,2.81-4.74,11.39-4.21,16.15-3.69l-.25-1.32c-1.39-.31-2.78-.75-4.21-.83-2.95-.16-6.13,1.32-8.1-1.71-1.13-1.73-.6-5.08.94-6.39.33-.28,4.54-1.95,2.42-2.52-3.17-.87-6.52,4.75-5.99,7.67.3,1.62,1.95,2.96,2.82,4.25-3.71.6-7.34,4.74-5.97,8.53l-5.55.85,1.11-3.21-1.54-1.05c-.13,2.61-1.94,4.16-4.27,4.9-2.98.95-6.53-.66-9.81.21-.34-.31,1.44-3.3-.64-3.41-1.32.27-.63,8.99-3.63,8.95v-2.34c-2.52-1.4-1.02,3.55-2.77,3.19-1.14-.23-.11-3.25-1.29-3.83-1.02-.5-1.14,2.58-1.06,2.98-2.91-2.28-.17-6.43,0-9.38,1.12-.35,1.36,1.56,1.93,1.71l1.91-1.5-1.28-.22.85-1.7-2.13-.21c.44-1.32,2.05-.55,2.13-.64.15-.17-.4-.96.52-1.42,2.32-1.13,2.78.24,3.94.16,1.47-.1,1.49-2.82,3.86.39,1.26-1.63,1.69-1.61,3.65-1.45l.84-4.51c.79.03.94,1.8,1.36,2.04,2.15,1.23,2.2-2.27,2.05-3.74.77.21,1.25,2.36,2.34,2.13,1.43-.31-.16-4.13.22-5.12,1.13.85,1.57,2.85,3.4,2.56v-4.69c1.02.71,1.54,1.59,2.99,1.28l-.42-4.69c4.28,1.69.82-4.63,1.28-5.12,1.07.06,1.6,1.33,2.59.15l-2.16-6.98c1.44,1.79,3.59,2.81,5.86,3.31,2.16.48,4.64.25,6.68.57,4.02.64,11.59,5.14,14.09,8.52,2.71,3.64,3.27,7.54,4.84,11.37.51,1.24,2.1,2.59,2.53,3.87.99,2.93,1.51,12.06,1.82,15.67.5,5.79,1.21,13.08,1.21,18.78,0,.52-.32.97-.36,1.47ZM424.36,105.51v-7.25l1.13,3.99-1.13,3.26Z"/>
        </g>
      </g>
    </g>
  </g>
</svg>